<svg width="149" height="149" viewBox="0 0 149 149" fill="none" xmlns="http://www.w3.org/2000/svg">
<circle cx="74.5" cy="74.5" r="74.5" fill="#0F0F0F"/>
<path d="M83.2186 87.3799L93.4282 77.1703C92.5954 76.3376 91.6068 75.677 90.5187 75.2263C89.4307 74.7756 88.2645 74.5436 87.0868 74.5436C85.9091 74.5436 84.7429 74.7756 83.6549 75.2263C82.5668 75.677 81.5782 76.3376 80.7454 77.1703L70.4521 87.4517C67.978 89.9204 64.8715 91.6598 61.4736 92.4789C58.0757 93.2979 54.5179 93.165 51.1906 92.0946C47.8634 91.0242 44.8954 89.0578 42.6124 86.4112C40.3294 83.7647 38.8198 80.5402 38.2491 77.092C37.6785 73.6437 38.069 70.1048 39.3777 66.8639C40.6864 63.623 42.8627 60.8053 45.6678 58.7201C48.4729 56.6349 51.7982 55.3629 55.2788 55.0437C58.7594 54.7245 62.2606 55.3705 65.3982 56.9106L70.0217 52.2293L71.9269 50.3002C64.872 45.8421 56.0395 44.6802 47.3346 47.6178C46.5838 47.8722 45.8514 48.1778 45.1424 48.5325C34.891 53.6323 29 63.3636 29 73.9996C29.0025 79.0161 30.3519 83.9398 32.9073 88.2566C35.4627 92.5733 39.1304 96.1247 43.5272 98.5398C47.924 100.955 52.8886 102.145 57.9025 101.986C62.9164 101.827 67.7956 100.324 72.0305 97.6353C72.8983 97.0765 73.7352 96.4711 74.5376 95.8218C75.3262 95.1845 76.0812 94.5067 76.7995 93.7911L81.0723 89.5183L83.2186 87.3799Z" fill="#42C58E"/>
<path d="M111.747 54.0727C102.291 44.738 87.8142 43.5224 77.0486 50.3699C75.2735 51.5036 73.6299 52.8311 72.1481 54.3278L68.0387 58.491L65.9063 60.6513L55.631 71.0601C57.3233 72.7288 59.6087 73.6574 61.9853 73.6421C64.3618 73.6268 66.6351 72.6687 68.3058 70.9784L78.5313 60.6154C80.9906 58.123 84.0898 56.3574 87.4879 55.5129C90.886 54.6683 94.4512 54.7775 97.7912 55.8285C101.131 56.8795 104.117 58.8315 106.419 61.4698C108.721 64.108 110.251 67.3302 110.839 70.7818C111.428 74.2333 111.054 77.7805 109.757 81.0329C108.46 84.2852 106.291 87.1168 103.488 89.2159C100.686 91.315 97.3585 92.6003 93.8726 92.9304C90.3868 93.2605 86.8774 92.6225 83.7307 91.0867L78.9179 95.8995C78.3227 96.512 77.7023 97.084 77.0566 97.6154C82.4606 101.037 88.8715 102.51 95.227 101.789C101.582 101.069 107.501 98.1982 112.002 93.6535C122.847 82.6827 122.734 64.92 111.747 54.0727Z" fill="#42C58E"/>
</svg>
